<?xml version="1.0" encoding="UTF-8"?>
<svg xmlns="http://www.w3.org/2000/svg" xmlns:xlink="http://www.w3.org/1999/xlink"  viewBox="140 175 290 195">
<path fill-rule="nonzero" fill="rgb(8.052063%, 20.982361%, 43.544006%)" fill-opacity="1" d="M 184.917969 321.625 L 222.882812 321.625 L 222.882812 315.613281 L 184.917969 315.613281 Z M 222.882812 307.925781 L 184.917969 307.925781 L 184.917969 313.453125 L 222.882812 313.453125 Z M 225.761719 323.78125 L 182.03125 323.78125 L 182.03125 305.765625 L 225.761719 305.765625 Z M 202.222656 332.914062 C 199.332031 336.125 196.128906 339.484375 192.605469 343.007812 C 189.085938 346.53125 185.882812 349.890625 182.992188 353.101562 L 179.390625 353.101562 L 198.613281 332.914062 L 183.710938 332.914062 C 183.230469 334.207031 182.710938 335.558594 182.15625 337.003906 C 181.589844 338.441406 181.074219 339.800781 180.59375 341.082031 L 177.710938 341.082031 L 183.230469 326.183594 L 186.121094 326.183594 L 184.675781 330.511719 L 227.683594 330.511719 L 226.964844 353.101562 L 209.671875 353.101562 L 208.464844 350.9375 L 224.085938 350.9375 C 224.238281 348.214844 224.363281 345.210938 224.441406 341.925781 C 224.519531 338.644531 224.644531 335.644531 224.808594 332.914062 L 216.398438 332.914062 C 213.671875 336.125 210.707031 339.527344 207.503906 343.128906 C 204.300781 346.730469 201.335938 350.132812 198.613281 353.34375 L 195.007812 353.34375 L 213.027344 332.914062 Z M 202.222656 332.914062 "/>
<path fill-rule="nonzero" fill="rgb(8.052063%, 20.982361%, 43.544006%)" fill-opacity="1" d="M 309.863281 341.324219 L 309.386719 353.101562 L 293.769531 353.101562 L 293.769531 331.714844 L 296.652344 331.714844 L 296.652344 350.9375 L 306.742188 350.9375 C 306.742188 349.34375 306.820312 347.453125 306.980469 345.285156 C 307.136719 343.128906 307.222656 341.25 307.222656 339.644531 Z M 276.703125 306.25 L 307.222656 306.25 L 307.222656 336.039062 L 304.332031 336.039062 L 304.332031 308.167969 L 279.59375 308.167969 L 279.59375 336.039062 L 276.703125 336.039062 Z M 272.378906 353.578125 L 289.917969 332.195312 L 289.917969 312.011719 L 292.804688 312.011719 L 292.804688 332.671875 L 275.5 353.578125 Z M 268.773438 325.222656 L 273.339844 332.429688 L 270.214844 332.429688 L 265.652344 325.222656 Z M 263.011719 302.636719 L 267.089844 308.648438 L 263.976562 308.648438 L 260.125 302.636719 Z M 254.121094 310.808594 L 272.613281 310.808594 L 264.929688 323.0625 L 264.929688 353.34375 L 262.050781 353.34375 L 262.050781 327.871094 C 261.085938 329.472656 260.085938 331.113281 259.046875 332.796875 C 258.003906 334.476562 257.003906 336.125 256.046875 337.726562 L 252.917969 337.726562 L 268.292969 312.972656 L 254.121094 312.972656 Z M 254.121094 310.808594 "/>
<path fill-rule="nonzero" fill="rgb(8.052063%, 20.982361%, 43.544006%)" fill-opacity="1" d="M 368.972656 334.835938 L 383.871094 334.835938 L 383.871094 328.589844 L 368.972656 328.589844 Z M 368.972656 326.425781 L 383.871094 326.425781 L 383.871094 319.941406 L 368.972656 319.941406 Z M 351.671875 334.835938 L 366.085938 334.835938 L 366.085938 328.589844 L 351.671875 328.589844 Z M 351.671875 326.425781 L 366.085938 326.425781 L 366.085938 319.941406 L 351.671875 319.941406 Z M 383.871094 337.246094 L 368.972656 337.246094 L 368.972656 345.175781 L 366.085938 345.175781 L 366.085938 337.246094 L 351.671875 337.246094 L 351.671875 345.175781 L 348.789062 345.175781 L 348.789062 317.53125 L 363.933594 317.53125 C 363.289062 316.902344 362.488281 316.179688 361.523438 315.375 C 360.5625 314.574219 359.765625 313.855469 359.121094 313.214844 L 362.730469 313.214844 L 366.8125 316.578125 C 369.050781 315.296875 371.292969 313.9375 373.539062 312.492188 C 375.777344 311.046875 378.019531 309.691406 380.265625 308.40625 L 349.503906 308.40625 L 349.503906 306.25 L 386.039062 306.25 L 385.796875 307.925781 L 369.9375 317.53125 L 386.753906 317.53125 L 386.753906 345.175781 L 375.460938 345.175781 L 374.257812 343.007812 L 383.871094 343.007812 Z M 339.902344 304.320312 L 347.351562 316.820312 L 344.222656 316.820312 L 336.777344 304.320312 Z M 333.652344 320.902344 L 342.296875 320.902344 L 342.296875 343.25 L 348.789062 351.175781 L 388.4375 351.175781 L 387.234375 353.34375 L 347.351562 353.34375 L 340.867188 345.886719 C 340.054688 347.171875 339.378906 348.378906 338.8125 349.492188 C 338.257812 350.617188 337.570312 351.8125 336.777344 353.101562 L 333.652344 353.101562 L 339.417969 343.25 L 339.417969 323.0625 L 333.652344 323.0625 Z M 333.652344 320.902344 "/>
<path fill-rule="nonzero" fill="rgb(8.052063%, 20.982361%, 43.544006%)" fill-opacity="1" d="M 418.171875 259.28125 L 418.171875 234.710938 C 418.171875 226.273438 413.804688 222.058594 405.066406 222.058594 C 403.027344 222.058594 400.894531 222.421875 398.667969 223.164062 C 396.898438 225.816406 394.773438 228.308594 392.300781 230.648438 L 392.300781 222.800781 L 375.398438 222.800781 C 377.066406 225.445312 377.898438 228.277344 377.898438 231.296875 L 377.898438 259.179688 C 377.898438 261.40625 377.773438 263.042969 377.535156 264.089844 C 377.21875 265.4375 376.507812 266.972656 375.398438 268.703125 L 394.714844 268.703125 C 393.691406 267.035156 393.019531 265.667969 392.730469 264.59375 C 392.457031 263.515625 392.300781 261.710938 392.300781 259.179688 L 392.300781 234.613281 L 393.703125 233.136719 L 395.105469 231.761719 C 396.027344 230.832031 397.28125 230.375 398.816406 230.375 C 402.058594 230.375 403.664062 231.96875 403.664062 235.171875 L 403.664062 259.179688 C 403.664062 262.824219 402.863281 265.988281 401.261719 268.703125 L 420.660156 268.703125 C 419.546875 267.101562 418.871094 265.757812 418.589844 264.679688 C 418.3125 263.605469 418.171875 261.804688 418.171875 259.28125 "/>
<path fill-rule="nonzero" fill="rgb(8.052063%, 20.982361%, 43.544006%)" fill-opacity="1" d="M 218.878906 240.792969 C 217.355469 241.132812 206.464844 241.132812 206.046875 240.792969 C 205.78125 240.53125 206.96875 234.675781 207.738281 232.972656 C 209.445312 229.148438 210.460938 226.589844 214.121094 225.578125 C 218.878906 224.296875 222.195312 228.199219 222.960938 234.160156 C 223.640625 239.605469 222.867188 239.859375 218.878906 240.792969 M 232.066406 229.664062 C 227.308594 221.328125 216.425781 219.203125 207.398438 222.855469 C 195.226562 227.695312 191.835938 243.421875 196.101562 255.664062 C 198.730469 263.496094 205.195312 267.84375 213.777344 268.609375 C 220.921875 269.285156 226.46875 266.554688 230.941406 261.625 C 233.582031 258.816406 233.746094 258.558594 230.867188 256.445312 C 230.011719 255.847656 229.933594 255.847656 229.5 256.445312 C 229.265625 256.953125 228.914062 257.292969 228.480469 257.722656 C 225.597656 260.609375 223.304688 262.734375 218.878906 263.40625 C 213.777344 264.175781 209.09375 260.007812 207.558594 255.664062 C 206.464844 252.605469 205.964844 249.382812 206.207031 245.984375 C 206.207031 244.960938 206.371094 244.878906 207.398438 244.878906 L 231.636719 244.878906 C 232.5625 244.878906 232.738281 244.878906 233.261719 244.453125 C 237.074219 241.554688 233.433594 232.203125 232.066406 229.664062 "/>
<path fill-rule="nonzero" fill="rgb(8.052063%, 20.982361%, 43.544006%)" fill-opacity="1" d="M 260.007812 240.066406 L 255.109375 236.28125 C 252.964844 234.613281 251.875 233.023438 251.875 231.484375 C 251.875 230.308594 252.34375 229.320312 253.265625 228.523438 C 254.191406 227.71875 255.351562 227.324219 256.777344 227.324219 C 259.242188 227.324219 261.882812 228.429688 264.722656 230.648438 C 266.199219 231.808594 267.304688 232.773438 268.046875 233.515625 C 267.605469 230.988281 267.386719 228.832031 267.386719 227.050781 C 267.386719 225.449219 267.433594 224.121094 267.496094 223.070312 C 263.246094 221.789062 259.355469 221.132812 255.84375 221.132812 C 250.246094 221.132812 245.898438 222.359375 242.78125 224.835938 C 239.671875 227.296875 238.117188 230.714844 238.117188 235.085938 C 238.175781 240.386719 241.128906 245.242188 246.972656 249.671875 C 249.011719 251.152344 250.640625 252.328125 251.875 253.191406 C 254.164062 254.792969 255.285156 256.445312 255.285156 258.171875 C 255.285156 259.398438 254.84375 260.453125 253.964844 261.324219 C 253.0625 262.167969 251.941406 262.59375 250.585938 262.59375 C 248.980469 262.59375 247.15625 261.992188 245.078125 260.761719 C 243.03125 259.535156 240.851562 257.464844 238.574219 254.582031 C 238.765625 257.40625 238.855469 259.558594 238.855469 261.042969 C 238.855469 263.132812 238.796875 264.980469 238.671875 266.574219 C 243.414062 267.996094 247.660156 268.703125 251.410156 268.703125 C 258.195312 268.703125 263.058594 266.972656 266.011719 263.527344 C 268.222656 260.945312 269.335938 257.929688 269.335938 254.484375 C 269.335938 251.453125 268.753906 249.058594 267.578125 247.273438 C 266.414062 245.488281 263.890625 243.085938 260.007812 240.066406 "/>
<path fill-rule="nonzero" fill="rgb(8.052063%, 20.982361%, 43.544006%)" fill-opacity="1" d="M 179.84375 221.882812 C 179.84375 222.75 179.726562 223.53125 179.460938 224.285156 L 172.734375 244.328125 L 165.890625 225.113281 C 165.285156 223.398438 164.960938 222.066406 164.960938 221.152344 C 164.960938 220.769531 165.0625 220.097656 165.238281 219.109375 L 145.492188 219.109375 C 148.425781 222.199219 150.828125 225.984375 152.691406 230.472656 L 165.332031 260.957031 C 163.25 266.128906 161.460938 269.757812 159.992188 271.855469 C 158.507812 273.953125 155.957031 276.566406 152.324219 279.71875 L 164.699219 279.71875 C 167.957031 277.308594 170.226562 275.246094 171.53125 273.519531 C 172.824219 271.792969 174.296875 268.839844 175.960938 264.660156 L 189.730469 230.574219 C 191.570312 226.007812 193.824219 222.199219 196.472656 219.109375 L 179.292969 219.109375 C 179.664062 220.402344 179.84375 221.332031 179.84375 221.882812 "/>
<path fill-rule="nonzero" fill="rgb(8.052063%, 20.982361%, 43.544006%)" fill-opacity="1" d="M 354.734375 258.914062 C 353.960938 260.085938 352.554688 260.664062 350.53125 260.664062 C 347.632812 260.664062 344.714844 259.097656 341.761719 255.953125 C 338.007812 251.949219 336.125 246.285156 336.125 238.957031 L 336.125 238.128906 C 336.125 233.882812 336.640625 231.265625 337.691406 230.277344 C 338.4375 229.59375 339.8125 229.257812 341.847656 229.257812 C 344.929688 229.257812 347.914062 230.953125 350.8125 234.339844 C 354.203125 238.347656 355.898438 244.34375 355.898438 252.351562 C 355.898438 255.558594 355.503906 257.746094 354.734375 258.914062 M 358.746094 223.53125 C 355.730469 222.058594 352.152344 221.316406 348.039062 221.316406 C 340.347656 221.316406 334.140625 223.660156 329.425781 228.335938 C 324.714844 233.019531 322.367188 239.175781 322.367188 246.804688 C 322.367188 253.21875 324.539062 258.464844 328.921875 262.558594 C 333.292969 266.648438 338.925781 268.703125 345.828125 268.703125 C 353.089844 268.703125 358.980469 266.464844 363.515625 261.957031 C 368.035156 257.457031 370.304688 251.644531 370.304688 244.507812 C 370.304688 240 369.226562 235.800781 367.0625 231.902344 C 364.917969 227.984375 362.136719 225.207031 358.746094 223.53125 "/>
<path fill-rule="nonzero" fill="rgb(8.052063%, 20.982361%, 43.544006%)" fill-opacity="1" d="M 311.792969 268.703125 C 311.328125 268.703125 311.03125 268.671875 311.03125 268.671875 L 292.128906 268.671875 L 292.128906 218.929688 L 303.132812 218.929688 L 303.132812 259.074219 C 303.132812 261.445312 305.710938 261.796875 307.234375 261.796875 L 307.527344 261.796875 C 315.207031 261.785156 318.410156 257.558594 318.550781 257.382812 L 320.828125 254.300781 L 321.015625 258.054688 C 321.191406 261.589844 320.332031 264.316406 318.46875 266.183594 C 316.171875 268.457031 313.046875 268.703125 311.792969 268.703125 "/>
<path fill-rule="evenodd" fill="rgb(8.052063%, 20.982361%, 43.544006%)" fill-opacity="1" d="M 290.234375 210.253906 C 290.234375 210.253906 291.070312 209.449219 293.222656 209.246094 C 295.675781 209 296.980469 207.945312 297.910156 206.800781 C 298.824219 205.714844 298.769531 204.453125 299.769531 203.511719 C 300.816406 202.503906 301.710938 201.910156 302.910156 201.75 C 304.226562 201.609375 305.175781 201.808594 306.171875 201.199219 C 307.121094 200.664062 307.171875 200.597656 307.171875 200.597656 C 307.171875 200.597656 306.476562 200.847656 305.527344 200.953125 C 304.605469 201 303.21875 200.664062 302.371094 200.664062 C 301.523438 200.664062 299.769531 201 298.71875 201.953125 C 297.722656 202.910156 296.71875 204.453125 295.675781 204.851562 C 294.671875 205.308594 293.222656 205.714844 292.464844 205.453125 C 291.167969 205.050781 290.675781 204.75 289.511719 204.902344 C 288.371094 205.050781 288.015625 205.253906 288.015625 205.253906 L 299.867188 190.101562 L 284.0625 201.398438 C 284.0625 201.398438 284.0625 200.707031 284.523438 199.707031 C 284.972656 198.746094 286.617188 197.703125 286.820312 196.058594 C 287.058594 194.648438 287.167969 193.761719 286.371094 192.152344 C 285.714844 190.699219 285.769531 189.507812 285.972656 188.644531 C 286.121094 187.597656 286.769531 186.550781 287.324219 186 C 288.324219 185.101562 288.511719 184.550781 288.714844 183.859375 L 288.914062 183.152344 C 288.914062 183.152344 288.867188 183.449219 288.132812 184.351562 C 287.371094 185.300781 286.921875 185.054688 285.972656 185.957031 C 285.015625 186.816406 284.316406 187.898438 284.03125 189.203125 C 283.675781 190.65625 284.371094 191.25 284.164062 192.75 C 283.96875 194.203125 283.8125 194.457031 283.015625 195.550781 C 282.375 196.453125 281.867188 196.652344 280.867188 197.203125 C 280.070312 197.601562 279.367188 198.148438 278.976562 199.210938 L 275.96875 180.652344 L 273.171875 199.34375 C 273.171875 199.34375 272.167969 197.753906 272.113281 197.203125 C 272.0625 196.554688 272.015625 194.304688 270.722656 192.949219 C 269.664062 191.851562 269.074219 191.550781 267.3125 190.90625 C 266.265625 190.503906 265.066406 189.25 264.570312 188.210938 C 264.070312 187.101562 264.167969 185.101562 264.015625 184.65625 C 263.867188 184.199219 263.167969 183.101562 263.167969 183.101562 C 263.167969 183.101562 263.570312 184.046875 263.511719 184.957031 C 263.472656 185.855469 263.003906 187.453125 263.117188 188.097656 C 263.269531 188.753906 263.3125 190.101562 264.722656 191.398438 C 266.117188 192.707031 266.722656 192.550781 267.570312 194.25 C 268.464844 195.949219 268.324219 196.84375 268.023438 197.800781 C 267.707031 198.746094 267.367188 199.652344 267.664062 200.449219 C 267.964844 201.253906 267.964844 201.398438 267.964844 201.398438 L 252.15625 190.101562 L 263.867188 205.253906 C 263.867188 205.253906 262.371094 205.101562 261.515625 204.414062 C 260.402344 203.398438 259.671875 202.910156 258.308594 202.558594 C 258.308594 202.558594 257.113281 202.097656 255.328125 202.652344 C 253.523438 203.15625 253.875 203.300781 252.609375 203.511719 C 251.410156 203.699219 249.460938 203.398438 248.515625 202.597656 C 247.5625 201.808594 246.765625 201.058594 246.070312 200.847656 C 245.425781 200.597656 244.863281 200.554688 244.863281 200.554688 C 244.863281 200.554688 245.964844 200.953125 246.8125 201.910156 C 247.660156 202.855469 247.859375 203.75 249.074219 204.453125 C 250.375 205.160156 251.410156 205.453125 252.570312 205.34375 C 253.722656 205.308594 253.761719 205.003906 255.265625 205.207031 C 256.109375 205.308594 257.710938 205.902344 258.117188 206.40625 C 259.164062 207.652344 259.8125 208.90625 260.371094 209.410156 C 261.007812 210.007812 261.816406 210.253906 261.816406 210.253906 L 242.3125 213.496094 C 242.3125 213.496094 260.71875 212.308594 263.117188 212.152344 C 265.507812 212.042969 272.0625 211.570312 276.066406 211.605469 C 280.070312 211.65625 282.460938 211.863281 285.171875 212 C 287.8125 212.152344 310.113281 213.605469 310.113281 213.605469 Z M 290.234375 210.253906 "/>
</svg>
